<mxfile host="app.diagrams.net" agent="Mozilla/5.0 (Macintosh; Intel Mac OS X 10_15_7) AppleWebKit/537.36 (KHTML, like Gecko) Chrome/135.0.0.0 Safari/537.36" version="27.1.3">
  <diagram name="第 1 页" id="5llmBLz_OllrxPFvGIoe">
    <mxGraphModel dx="946" dy="510" grid="1" gridSize="10" guides="1" tooltips="1" connect="1" arrows="1" fold="1" page="1" pageScale="1" pageWidth="827" pageHeight="1169" math="0" shadow="0">
      <root>
        <mxCell id="0" />
        <mxCell id="1" parent="0" />
        <mxCell id="91hZfNvjW7EuNd4K8IpK-10" style="rounded=0;orthogonalLoop=1;jettySize=auto;html=1;exitX=0;exitY=0.25;exitDx=0;exitDy=0;entryX=1;entryY=0.5;entryDx=0;entryDy=0;" edge="1" parent="1" source="91hZfNvjW7EuNd4K8IpK-4" target="91hZfNvjW7EuNd4K8IpK-5">
          <mxGeometry relative="1" as="geometry" />
        </mxCell>
        <mxCell id="91hZfNvjW7EuNd4K8IpK-4" value="session行为改写" style="rounded=1;whiteSpace=wrap;html=1;" vertex="1" parent="1">
          <mxGeometry x="220" y="110" width="100" height="40" as="geometry" />
        </mxCell>
        <mxCell id="91hZfNvjW7EuNd4K8IpK-8" style="edgeStyle=orthogonalEdgeStyle;rounded=0;orthogonalLoop=1;jettySize=auto;html=1;exitX=0.5;exitY=1;exitDx=0;exitDy=0;entryX=0.5;entryY=0;entryDx=0;entryDy=0;" edge="1" parent="1" source="91hZfNvjW7EuNd4K8IpK-5" target="91hZfNvjW7EuNd4K8IpK-6">
          <mxGeometry relative="1" as="geometry" />
        </mxCell>
        <mxCell id="91hZfNvjW7EuNd4K8IpK-5" value="抛弃模块" style="rounded=1;whiteSpace=wrap;html=1;" vertex="1" parent="1">
          <mxGeometry x="50" y="80" width="90" height="40" as="geometry" />
        </mxCell>
        <mxCell id="91hZfNvjW7EuNd4K8IpK-9" style="rounded=0;orthogonalLoop=1;jettySize=auto;html=1;exitX=1;exitY=0.5;exitDx=0;exitDy=0;entryX=0;entryY=0.75;entryDx=0;entryDy=0;" edge="1" parent="1" source="91hZfNvjW7EuNd4K8IpK-6" target="91hZfNvjW7EuNd4K8IpK-4">
          <mxGeometry relative="1" as="geometry" />
        </mxCell>
        <mxCell id="91hZfNvjW7EuNd4K8IpK-6" value="图片解析模块" style="rounded=1;whiteSpace=wrap;html=1;" vertex="1" parent="1">
          <mxGeometry x="50" y="150" width="90" height="40" as="geometry" />
        </mxCell>
        <mxCell id="91hZfNvjW7EuNd4K8IpK-14" style="edgeStyle=orthogonalEdgeStyle;rounded=0;orthogonalLoop=1;jettySize=auto;html=1;exitX=0.5;exitY=1;exitDx=0;exitDy=0;exitPerimeter=0;entryX=0.5;entryY=0;entryDx=0;entryDy=0;" edge="1" parent="1" source="91hZfNvjW7EuNd4K8IpK-13" target="91hZfNvjW7EuNd4K8IpK-4">
          <mxGeometry relative="1" as="geometry" />
        </mxCell>
        <mxCell id="91hZfNvjW7EuNd4K8IpK-13" value="pv数据" style="strokeWidth=2;html=1;shape=mxgraph.flowchart.stored_data;whiteSpace=wrap;" vertex="1" parent="1">
          <mxGeometry x="220" y="30" width="100" height="40" as="geometry" />
        </mxCell>
        <mxCell id="91hZfNvjW7EuNd4K8IpK-19" style="edgeStyle=orthogonalEdgeStyle;rounded=0;orthogonalLoop=1;jettySize=auto;html=1;exitX=0.5;exitY=1;exitDx=0;exitDy=0;exitPerimeter=0;entryX=0.5;entryY=0;entryDx=0;entryDy=0;" edge="1" parent="1" source="91hZfNvjW7EuNd4K8IpK-15" target="91hZfNvjW7EuNd4K8IpK-18">
          <mxGeometry relative="1" as="geometry" />
        </mxCell>
        <mxCell id="91hZfNvjW7EuNd4K8IpK-15" value="session行为" style="strokeWidth=2;html=1;shape=mxgraph.flowchart.stored_data;whiteSpace=wrap;" vertex="1" parent="1">
          <mxGeometry x="220" y="190" width="100" height="40" as="geometry" />
        </mxCell>
        <mxCell id="91hZfNvjW7EuNd4K8IpK-16" style="edgeStyle=orthogonalEdgeStyle;rounded=0;orthogonalLoop=1;jettySize=auto;html=1;exitX=0.5;exitY=1;exitDx=0;exitDy=0;entryX=0.5;entryY=0;entryDx=0;entryDy=0;entryPerimeter=0;" edge="1" parent="1" source="91hZfNvjW7EuNd4K8IpK-4" target="91hZfNvjW7EuNd4K8IpK-15">
          <mxGeometry relative="1" as="geometry" />
        </mxCell>
        <mxCell id="91hZfNvjW7EuNd4K8IpK-21" style="edgeStyle=orthogonalEdgeStyle;rounded=0;orthogonalLoop=1;jettySize=auto;html=1;exitX=0.5;exitY=1;exitDx=0;exitDy=0;entryX=0.5;entryY=0;entryDx=0;entryDy=0;" edge="1" parent="1" source="91hZfNvjW7EuNd4K8IpK-18" target="91hZfNvjW7EuNd4K8IpK-20">
          <mxGeometry relative="1" as="geometry" />
        </mxCell>
        <mxCell id="91hZfNvjW7EuNd4K8IpK-18" value="用户意图识别" style="rounded=1;whiteSpace=wrap;html=1;" vertex="1" parent="1">
          <mxGeometry x="220" y="260" width="100" height="40" as="geometry" />
        </mxCell>
        <mxCell id="91hZfNvjW7EuNd4K8IpK-23" style="edgeStyle=orthogonalEdgeStyle;rounded=0;orthogonalLoop=1;jettySize=auto;html=1;exitX=0.5;exitY=1;exitDx=0;exitDy=0;entryX=0.5;entryY=0;entryDx=0;entryDy=0;" edge="1" parent="1" source="91hZfNvjW7EuNd4K8IpK-20" target="91hZfNvjW7EuNd4K8IpK-22">
          <mxGeometry relative="1" as="geometry" />
        </mxCell>
        <mxCell id="91hZfNvjW7EuNd4K8IpK-20" value="LLM评估session" style="rounded=1;whiteSpace=wrap;html=1;" vertex="1" parent="1">
          <mxGeometry x="220" y="330" width="100" height="40" as="geometry" />
        </mxCell>
        <mxCell id="91hZfNvjW7EuNd4K8IpK-28" style="rounded=0;orthogonalLoop=1;jettySize=auto;html=1;exitX=0;exitY=0.25;exitDx=0;exitDy=0;entryX=1;entryY=0.5;entryDx=0;entryDy=0;" edge="1" parent="1" source="91hZfNvjW7EuNd4K8IpK-22" target="91hZfNvjW7EuNd4K8IpK-25">
          <mxGeometry relative="1" as="geometry" />
        </mxCell>
        <mxCell id="91hZfNvjW7EuNd4K8IpK-32" style="edgeStyle=orthogonalEdgeStyle;rounded=0;orthogonalLoop=1;jettySize=auto;html=1;exitX=0.5;exitY=1;exitDx=0;exitDy=0;entryX=0.5;entryY=0;entryDx=0;entryDy=0;" edge="1" parent="1" source="91hZfNvjW7EuNd4K8IpK-22" target="91hZfNvjW7EuNd4K8IpK-31">
          <mxGeometry relative="1" as="geometry" />
        </mxCell>
        <mxCell id="91hZfNvjW7EuNd4K8IpK-22" value="准确性溯源" style="rounded=1;whiteSpace=wrap;html=1;" vertex="1" parent="1">
          <mxGeometry x="220" y="400" width="100" height="40" as="geometry" />
        </mxCell>
        <mxCell id="91hZfNvjW7EuNd4K8IpK-29" style="edgeStyle=orthogonalEdgeStyle;rounded=0;orthogonalLoop=1;jettySize=auto;html=1;exitX=0.5;exitY=1;exitDx=0;exitDy=0;entryX=0.5;entryY=0;entryDx=0;entryDy=0;" edge="1" parent="1" source="91hZfNvjW7EuNd4K8IpK-25" target="91hZfNvjW7EuNd4K8IpK-27">
          <mxGeometry relative="1" as="geometry" />
        </mxCell>
        <mxCell id="91hZfNvjW7EuNd4K8IpK-25" value="query是否需要溯源" style="rounded=1;whiteSpace=wrap;html=1;" vertex="1" parent="1">
          <mxGeometry x="50" y="360" width="90" height="40" as="geometry" />
        </mxCell>
        <mxCell id="91hZfNvjW7EuNd4K8IpK-30" style="rounded=0;orthogonalLoop=1;jettySize=auto;html=1;exitX=1;exitY=0.5;exitDx=0;exitDy=0;entryX=0;entryY=0.75;entryDx=0;entryDy=0;" edge="1" parent="1" source="91hZfNvjW7EuNd4K8IpK-27" target="91hZfNvjW7EuNd4K8IpK-22">
          <mxGeometry relative="1" as="geometry" />
        </mxCell>
        <mxCell id="91hZfNvjW7EuNd4K8IpK-27" value="各类搜索API调用模块" style="rounded=1;whiteSpace=wrap;html=1;" vertex="1" parent="1">
          <mxGeometry x="50" y="440" width="90" height="40" as="geometry" />
        </mxCell>
        <mxCell id="91hZfNvjW7EuNd4K8IpK-31" value="最终打分结果" style="rounded=1;whiteSpace=wrap;html=1;" vertex="1" parent="1">
          <mxGeometry x="220" y="470" width="100" height="40" as="geometry" />
        </mxCell>
      </root>
    </mxGraphModel>
  </diagram>
</mxfile>
